<svg id="Layer_1" data-name="Layer 1" xmlns="http://www.w3.org/2000/svg" viewBox="131.1 437.62 377.73 87.68">
  <defs>
    <style>
      .cls-1 {
        fill: #78583d;
      }

      .cls-2 {
        fill: #896a52;
      }

      .cls-3 {
        fill: #a6a8ab;
      }
    </style>
  </defs>
  <title>terrarium-house-soil</title>
  <g id="HOUSE">
    <g>
      <g id="SOIL">
        <path class="cls-1" d="M131.1,438.6a123.4,123.4,0,0,0,55.1,1.3c30-6.3,52.5,2.5,52.5,2.5s33.8,7.5,56.3,3.8,31.3-2.5,62.6-1.3,50-2.5,61.3-2.5,30,5,57.6,3.8,30.7-5.5,30.7-5.5l1.6,84.6H131.3V438.6Z"/>
        <g>
          <polygon class="cls-2" points="143 494.6 141.7 501.9 147.7 502.6 147.7 496.6 143 494.6"/>
          <polygon class="cls-2" points="140 517.5 144.8 520 146.6 516.1 142.4 514.7 140 517.5"/>
          <polygon class="cls-2" points="137.3 448.3 143.1 451.5 145.3 446.6 140.2 445 137.3 448.3"/>
          <polygon class="cls-2" points="136.1 474.9 134.4 481.2 139.6 482.3 140.1 477 136.1 474.9"/>
          <polygon class="cls-2" points="149.1 463.8 153.4 461.5 151.3 458.2 148.3 460.6 149.1 463.8"/>
          <polygon class="cls-2" points="172.8 463.3 171.6 468.6 175.9 469.3 176.1 464.9 172.8 463.3"/>
          <polygon class="cls-2" points="186.2 462.5 184.7 468.9 190 469.7 190.2 464.4 186.2 462.5"/>
          <polygon class="cls-2" points="163.7 473.3 157.1 473.3 157.5 478.6 162.7 477.6 163.7 473.3"/>
          <polygon class="cls-2" points="216.5 517 209.9 517 210.2 522.3 215.5 521.4 216.5 517"/>
          <polygon class="cls-2" points="177.9 482.8 181.3 486.3 183.9 483.4 180.7 481.1 177.9 482.8"/>
          <polygon class="cls-2" points="198.9 489.6 202.3 493 204.9 490.2 201.7 487.9 198.9 489.6"/>
          <polygon class="cls-2" points="159 491.2 156.2 493.1 156.7 495.7 160.7 494.9 159 491.2"/>
          <polygon class="cls-2" points="238.5 507.2 235.7 509 236.2 511.7 240.2 510.8 238.5 507.2"/>
          <polygon class="cls-2" points="246.6 452 250.9 449.8 248.8 446.5 245.8 448.9 246.6 452"/>
          <polygon class="cls-2" points="270.3 451.6 269.1 456.9 273.4 457.5 273.6 453.2 270.3 451.6"/>
          <polygon class="cls-2" points="275.4 471.1 278.8 474.5 281.4 471.7 278.2 469.4 275.4 471.1"/>
          <polygon class="cls-2" points="256.5 479.5 253.7 481.3 254.2 484 258.2 483.2 256.5 479.5"/>
          <polygon class="cls-2" points="172.7 444.7 174.5 447.9 176.9 447.1 174.4 443.6 172.7 444.7"/>
          <polygon class="cls-2" points="202.4 470.5 204.3 473.7 206.6 472.8 204.1 469.3 202.4 470.5"/>
          <polygon class="cls-2" points="281.5 487.2 283.4 490.3 285.7 489.5 283.2 486 281.5 487.2"/>
          <polygon class="cls-2" points="179.2 499.7 174.5 505.6 181 510.1 181.5 503.2 179.2 499.7"/>
          <polygon class="cls-2" points="213.3 456.5 218 459 219.8 455.1 215.7 453.7 213.3 456.5"/>
          <polygon class="cls-2" points="161.6 515.8 166.3 518.4 168.1 514.4 164 513 161.6 515.8"/>
          <polygon class="cls-2" points="216 443.3 221.8 446.5 224 441.6 219 440 216 443.3"/>
          <polygon class="cls-2" points="220.4 467.9 218.6 474.2 223.8 475.3 224.3 470 220.4 467.9"/>
          <polygon class="cls-2" points="410.6 507.1 408.9 513.5 414.1 514.6 414.6 509.3 410.6 507.1"/>
          <polygon class="cls-2" points="248 466.3 241.4 466.3 241.7 471.6 247 470.6 248 466.3"/>
          <polygon class="cls-2" points="293.6 508.5 287.1 508.5 287.4 513.8 292.6 512.9 293.6 508.5"/>
          <polygon class="cls-2" points="266.7 501.1 263.4 505.2 268 508.3 268.4 503.5 266.7 501.1"/>
          <polygon class="cls-2" points="293.4 450.8 288.8 456.7 295.3 461.2 295.8 454.3 293.4 450.8"/>
          <polygon class="cls-2" points="229.2 487.6 225 490.1 227.3 493.3 230.2 490.8 229.2 487.6"/>
          <polygon class="cls-2" points="206.5 507.7 204.5 504.7 202.2 505.6 204.9 509 206.5 507.7"/>
          <polygon class="cls-2" points="502.3 451.8 497.6 449.2 495.7 453.1 499.8 454.5 502.3 451.8"/>
          <polygon class="cls-2" points="475 475.2 469.3 472 467 476.8 472 478.6 475 475.2"/>
          <polygon class="cls-2" points="496.5 461.9 492.2 464.1 494.3 467.5 497.3 465.1 496.5 461.9"/>
          <polygon class="cls-2" points="484.1 480.2 479.9 482.4 481.9 485.7 485 483.4 484.1 480.2"/>
          <polygon class="cls-2" points="456.1 513.2 455.1 510 452.4 509.7 452.1 513.8 456.1 513.2"/>
          <polygon class="cls-2" points="501.4 488.9 497.9 489.8 498 492.3 502.1 490.8 501.4 488.9"/>
          <polygon class="cls-2" points="454.4 470.9 450.9 471.8 451 474.3 455.1 472.8 454.4 470.9"/>
          <polygon class="cls-2" points="479.9 458.4 475.6 452.3 469.5 457.2 475.9 459.6 479.9 458.4"/>
          <polygon class="cls-2" points="474.2 490.6 470.4 494.4 473.7 497.3 476.1 493.7 474.2 490.6"/>
          <polygon class="cls-2" points="498.9 506.9 493.3 503.4 490.8 508.1 495.7 510 498.9 506.9"/>
          <polygon class="cls-2" points="485.7 520.8 487.5 514.5 482.3 513.3 481.8 518.6 485.7 520.8"/>
          <polygon class="cls-2" points="477.5 509.7 476.3 505.1 472.6 506.3 474.2 509.8 477.5 509.7"/>
          <polygon class="cls-2" points="437.2 486.3 440.7 485.3 440.5 482.8 436.5 484.4 437.2 486.3"/>
          <polygon class="cls-2" points="197.5 453.1 201.9 447 195.2 442.9 195 449.7 197.5 453.1"/>
          <polygon class="cls-2" points="454.7 453.6 456 460.9 450 461.6 450 455.6 454.7 453.6"/>
          <polygon class="cls-2" points="438.1 464.7 435.6 466 434.7 463.9 436.9 463.2 438.1 464.7"/>
          <polygon class="cls-2" points="436.4 449.4 430.6 452.5 428.4 447.6 433.4 446 436.4 449.4"/>
          <polygon class="cls-2" points="425.7 473.9 427.5 480.2 422.3 481.3 421.8 476.1 425.7 473.9"/>
          <polygon class="cls-2" points="419.1 462.8 414.8 460.5 416.9 457.2 419.9 459.6 419.1 462.8"/>
          <polygon class="cls-2" points="395.4 462.4 396.6 467.6 392.3 468.3 392.1 464 395.4 462.4"/>
          <polygon class="cls-2" points="382 461.5 383.5 467.9 378.2 468.7 378 463.4 382 461.5"/>
          <polygon class="cls-2" points="404.5 472.3 411 472.3 410.7 477.6 405.5 476.7 404.5 472.3"/>
          <polygon class="cls-2" points="351.7 516 358.3 516 357.9 521.3 352.7 520.4 351.7 516"/>
          <polygon class="cls-2" points="390.3 481.8 386.9 485.3 384.3 482.4 387.4 480.1 390.3 481.8"/>
          <polygon class="cls-2" points="369.3 488.6 365.9 492 363.3 489.2 366.4 486.9 369.3 488.6"/>
          <polygon class="cls-2" points="409.2 490.2 412 492.1 411.5 494.7 407.5 493.9 409.2 490.2"/>
          <polygon class="cls-2" points="329.7 506.2 332.5 508 332 510.7 328 509.8 329.7 506.2"/>
          <polygon class="cls-2" points="321.6 451 317.3 448.8 319.4 445.5 322.4 447.9 321.6 451"/>
          <polygon class="cls-2" points="296 470 297.2 475.2 292.9 475.9 292.7 471.6 296 470"/>
          <polygon class="cls-2" points="311.7 478.5 314.5 480.3 314 483 310 482.2 311.7 478.5"/>
          <polygon class="cls-2" points="395.5 448.7 393.7 451.9 391.3 451.1 393.8 447.6 395.5 448.7"/>
          <polygon class="cls-2" points="365.7 469.5 363.9 472.7 361.6 471.8 364.1 468.3 365.7 469.5"/>
          <polygon class="cls-2" points="389 498.7 393.7 504.6 387.2 509.1 386.7 502.2 389 498.7"/>
          <polygon class="cls-2" points="354.9 455.5 350.2 458 348.4 454.1 352.5 452.7 354.9 455.5"/>
          <polygon class="cls-2" points="347.8 466.9 349.6 473.2 344.4 474.3 343.9 469.1 347.8 466.9"/>
          <polygon class="cls-2" points="454.6 489.5 456.3 495.8 451.1 496.9 450.6 491.6 454.6 489.5"/>
          <polygon class="cls-2" points="320.2 465.3 326.8 465.3 326.4 470.6 321.2 469.7 320.2 465.3"/>
          <polygon class="cls-2" points="430.6 494.5 437.1 494.5 436.8 499.8 431.6 498.9 430.6 494.5"/>
          <polygon class="cls-2" points="304.7 491.7 309.4 497.6 302.9 502.1 302.4 495.2 304.7 491.7"/>
          <polygon class="cls-2" points="339 486.6 343.1 489.1 340.9 492.3 338 489.8 339 486.6"/>
          <polygon class="cls-2" points="361.7 506.7 363.6 503.7 365.9 504.6 363.3 508 361.7 506.7"/>
          <polygon class="cls-2" points="436.4 517.8 432 511.7 438.7 507.5 438.9 514.4 436.4 517.8"/>
          <polygon class="cls-2" points="249.9 504 245.5 497.9 252.2 493.7 252.4 500.6 249.9 504"/>
        </g>
      </g>
    </g>
  </g>
</svg>